<?xml version="1.0" encoding="UTF-8" standalone="no"?><svg xmlns="http://www.w3.org/2000/svg" xmlns:xlink="http://www.w3.org/1999/xlink" fill="#000000" height="95.2" preserveAspectRatio="xMidYMid meet" version="1" viewBox="-1.7 -0.7 466.5 95.2" width="466.5" zoomAndPan="magnify"><g id="change1_1"><path d="M454.5,8.3c5.6,3.8,7.6,11.1,8.4,17.8c1.9,15.7,0,31.5-1.9,47.1c-0.5,4-1,8.2-3.4,11.4 c-3.8,5.4-11.2,6.7-17.9,7.4c-26.9,2.5-54,0.5-81,0.2c-70.1-0.9-140.3-2.3-210.5-1.6c-41.1,0.4-82.2-0.4-123.3-0.9 c-5.9-0.1-12.2-0.3-16.7-4.1c-4-3.3-5.6-8.7-6.6-13.7C-1.7,54.2,0,35.3,6.7,18.4C9.2,12,12.8,5.4,19,2.3c5.8-3,12.7-2.4,19.2-1.8 c31,2.7,61.8,1.6,92.8,2c33,0.5,66.1,0.8,99.1,0.8C300.5,3.4,370.9,0,441.1,5c4.4,0.3,9,0.7,12.8,3C454.1,8.1,454.3,8.2,454.5,8.3z" fill="#ffffff"/></g></svg>