<svg xmlns="http://www.w3.org/2000/svg" width="160.013" height="40.707" viewBox="0 0 160.013 40.707">
  <g id="Group_167" data-name="Group 167" transform="translate(-888.442 -67.854)">
    <path id="Path_328" data-name="Path 328" d="M-.137,0H4.951L3.776,4.854H-1.3Z" transform="translate(935 68)" fill="#f4f91f"/>
    <path id="Path_329" data-name="Path 329" d="M-.137,0H4.951L3.776,4.854H-1.3Z" transform="translate(936 76.854)" fill="#f4f91f"/>
    <path id="Path_330" data-name="Path 330" d="M-.137,0H4.951L3.776,4.854H-1.3Z" transform="translate(948 68)" fill="#f4f91f"/>
    <path id="Path_331" data-name="Path 331" d="M-.137,0H4.951L3.776,4.854H-1.3Z" transform="translate(942 72.854)" fill="#f4f91f"/>
    <path id="Path_332" data-name="Path 332" d="M-.137,0H4.951L3.776,4.854H-1.3Z" transform="translate(899.746 68)" fill="#f4f91f"/>
    <path id="Path_333" data-name="Path 333" d="M-.137,0H4.951L3.776,4.854H-1.3Z" transform="translate(923 76.854)" fill="#f4f91f"/>
    <path id="Path_334" data-name="Path 334" d="M-.137,0H4.951L3.776,4.854H-1.3Z" transform="translate(906 76.854)" fill="#f4f91f"/>
    <path id="Path_335" data-name="Path 335" d="M-.137,0H4.951L3.776,4.854H-1.3Z" transform="translate(901.746 94)" fill="#f4f91f"/>
    <path id="Path_336" data-name="Path 336" d="M-.137,0H4.951L3.776,4.854H-1.3Z" transform="translate(889.746 103)" fill="#f4f91f"/>
    <path id="Path_337" data-name="Path 337" d="M-.137,0H4.951L3.776,4.854H-1.3Z" transform="translate(912.254 85)" fill="#f4f91f"/>
    <path id="Path_338" data-name="Path 338" d="M-.137,0H4.951L3.776,4.854H-1.3Z" transform="translate(918.873 94)" fill="#f4f91f"/>
    <path id="Path_339" data-name="Path 339" d="M-.137,0H4.951L3.776,4.854H-1.3Z" transform="translate(925.127 103)" fill="#f4f91f"/>
    <path id="Path_340" data-name="Path 340" d="M-.137,0H4.951L3.776,4.854H-1.3Z" transform="translate(929.746 103)" fill="#f4f91f"/>
    <path id="Path_341" data-name="Path 341" d="M-.137,0H4.951L3.776,4.854H-1.3Z" transform="translate(935 98.854)" fill="#f4f91f"/>
    <path id="Path_342" data-name="Path 342" d="M-.137,0H4.951L3.776,4.854H-1.3Z" transform="translate(941.746 94.854)" fill="#f4f91f"/>
    <path id="Path_343" data-name="Path 343" d="M-.137,0H4.951L3.776,4.854H-1.3Z" transform="translate(938.619 85)" fill="#f4f91f"/>
    <path id="Path_344" data-name="Path 344" d="M-.137,0H4.951L3.776,4.854H-1.3Z" transform="translate(949.558 76.146)" fill="#f4f91f"/>
    <path id="Path_345" data-name="Path 345" d="M-.137,0H4.951L3.776,4.854H-1.3Z" transform="translate(957.685 81)" fill="#f4f91f"/>
    <path id="Path_346" data-name="Path 346" d="M-.137,0H4.951L3.776,4.854H-1.3Z" transform="translate(963.939 76.146)" fill="#f4f91f"/>
    <path id="Path_347" data-name="Path 347" d="M-.137,0H4.951L3.776,4.854H-1.3Z" transform="translate(954.558 72.854)" fill="#f4f91f"/>
    <path id="Path_348" data-name="Path 348" d="M-.137,0H4.951L3.776,4.854H-1.3Z" transform="translate(974.066 67.854)" fill="#f4f91f"/>
    <path id="Path_349" data-name="Path 349" d="M-.137,0H4.951L3.776,4.854H-1.3Z" transform="translate(931.873 89.146)" fill="#f4f91f"/>
    <path id="Path_350" data-name="Path 350" d="M-.137,0H4.951L3.776,4.854H-1.3Z" transform="translate(961 68)" fill="#f4f91f"/>
    <path id="Path_351" data-name="Path 351" d="M-.137,0H4.951L3.776,4.854H-1.3Z" transform="translate(951.43 85.146)" fill="#f4f91f"/>
    <path id="Path_352" data-name="Path 352" d="M-.137,0H4.951L3.776,4.854H-1.3Z" transform="translate(946.431 90)" fill="#f4f91f"/>
    <path id="Path_353" data-name="Path 353" d="M-.137,0H4.951L3.776,4.854H-1.3Z" transform="translate(968.939 72.854)" fill="#f4f91f"/>
    <path id="Path_354" data-name="Path 354" d="M-.137,0H4.951L3.776,4.854H-1.3Z" transform="translate(943.558 80.854)" fill="#f4f91f"/>
    <path id="Path_355" data-name="Path 355" d="M-.137,0H4.951L3.776,4.854H-1.3Z" transform="translate(973.12 85.854)" fill="#f4f91f"/>
    <path id="Path_356" data-name="Path 356" d="M-.137,0H4.951L3.776,4.854H-1.3Z" transform="translate(981.877 85.707)" fill="#f4f91f"/>
    <path id="Path_357" data-name="Path 357" d="M-.137,0H4.951L3.776,4.854H-1.3Z" transform="translate(969.369 81.707)" fill="#f4f91f"/>
    <path id="Path_358" data-name="Path 358" d="M-.137,0H4.951L3.776,4.854H-1.3Z" transform="translate(993.625 76.854)" fill="#f4f91f"/>
    <path id="Path_359" data-name="Path 359" d="M-.137,0H4.951L3.776,4.854H-1.3Z" transform="translate(947.509 98.854)" fill="#f4f91f"/>
    <path id="Path_360" data-name="Path 360" d="M-.137,0H4.951L3.776,4.854H-1.3Z" transform="translate(978.321 68)" fill="#f4f91f"/>
    <path id="Path_361" data-name="Path 361" d="M-.137,0H4.951L3.776,4.854H-1.3Z" transform="translate(966.866 94)" fill="#f4f91f"/>
    <path id="Path_362" data-name="Path 362" d="M-.137,0H4.951L3.776,4.854H-1.3Z" transform="translate(961.242 98.854)" fill="#f4f91f"/>
    <path id="Path_363" data-name="Path 363" d="M-.137,0H4.951L3.776,4.854H-1.3Z" transform="translate(984.242 76.854)" fill="#f4f91f"/>
    <path id="Path_364" data-name="Path 364" d="M-.137,0H4.951L3.776,4.854H-1.3Z" transform="translate(958.369 89.707)" fill="#f4f91f"/>
    <path id="Path_365" data-name="Path 365" d="M-.137,0H4.951L3.776,4.854H-1.3Z" transform="translate(968.939 103)" fill="#f4f91f"/>
    <path id="Path_366" data-name="Path 366" d="M-.137,0H4.951L3.776,4.854H-1.3Z" transform="translate(980.321 94)" fill="#f4f91f"/>
    <path id="Path_367" data-name="Path 367" d="M-.137,0H4.951L3.776,4.854H-1.3Z" transform="translate(965.309 85.854)" fill="#f4f91f"/>
    <path id="Path_368" data-name="Path 368" d="M-.137,0H4.951L3.776,4.854H-1.3Z" transform="translate(990.497 85.854)" fill="#f4f91f"/>
    <path id="Path_369" data-name="Path 369" d="M-.137,0H4.951L3.776,4.854H-1.3Z" transform="translate(941.254 102.854)" fill="#f4f91f"/>
    <path id="Path_370" data-name="Path 370" d="M-.137,0H4.951L3.776,4.854H-1.3Z" transform="translate(975.623 76.854)" fill="#f4f91f"/>
    <path id="Path_371" data-name="Path 371" d="M-.137,0H4.951L3.776,4.854H-1.3Z" transform="translate(960.811 98.854)" fill="#f4f91f"/>
    <path id="Path_372" data-name="Path 372" d="M-.137,0H4.951L3.776,4.854H-1.3Z" transform="translate(955.812 103.707)" fill="#f4f91f"/>
    <path id="Path_373" data-name="Path 373" d="M-.137,0H4.951L3.776,4.854H-1.3Z" transform="translate(971.563 94)" fill="#f4f91f"/>
    <path id="Path_374" data-name="Path 374" d="M-.137,0H4.951L3.776,4.854H-1.3Z" transform="translate(953.431 94)" fill="#f4f91f"/>
    <path id="Path_375" data-name="Path 375" d="M-.137,0H4.951L3.776,4.854H-1.3Z" transform="translate(986.26 68)" fill="#f4f91f"/>
    <path id="Path_376" data-name="Path 376" d="M-.137,0H4.951L3.776,4.854H-1.3Z" transform="translate(998.877 85.707)" fill="#f4f91f"/>
    <path id="Path_377" data-name="Path 377" d="M-.137,0H4.951L3.776,4.854H-1.3Z" transform="translate(1001.242 76.854)" fill="#f4f91f"/>
    <path id="Path_378" data-name="Path 378" d="M-.137,0H4.951L3.776,4.854H-1.3Z" transform="translate(997.321 94)" fill="#f4f91f"/>
    <path id="Path_379" data-name="Path 379" d="M-.137,0H4.951L3.776,4.854H-1.3Z" transform="translate(1003.26 68)" fill="#f4f91f"/>
    <path id="Path_380" data-name="Path 380" d="M-.137,0H4.951L3.776,4.854H-1.3Z" transform="translate(1007.943 85.707)" fill="#f4f91f"/>
    <path id="Path_381" data-name="Path 381" d="M-.137,0H4.951L3.776,4.854H-1.3Z" transform="translate(1010.309 76.854)" fill="#f4f91f"/>
    <path id="Path_382" data-name="Path 382" d="M-.137,0H4.951L3.776,4.854H-1.3Z" transform="translate(1006.388 94)" fill="#f4f91f"/>
    <path id="Path_383" data-name="Path 383" d="M-.137,0H4.951L3.776,4.854H-1.3Z" transform="translate(1012.327 68)" fill="#f4f91f"/>
    <path id="Path_384" data-name="Path 384" d="M-.137,0H4.951L3.776,4.854H-1.3Z" transform="translate(994.199 68)" fill="#f4f91f"/>
    <path id="Path_385" data-name="Path 385" d="M8.875,1.974h5.017L3.776,41.326H-1.3Z" transform="translate(1007.943 66.026)" fill="#f4f91f"/>
    <path id="Path_386" data-name="Path 386" d="M-.137,0H4.951L3.776,4.854H-1.3Z" transform="translate(988.254 94)" fill="#f4f91f"/>
    <path id="Path_387" data-name="Path 387" d="M-.137,0H4.951L3.776,4.854H-1.3Z" transform="translate(985.004 102.854)" fill="#f4f91f"/>
    <path id="Path_388" data-name="Path 388" d="M-.137,0H4.951L3.776,4.854H-1.3Z" transform="translate(977.004 102.854)" fill="#f4f91f"/>
    <path id="Path_389" data-name="Path 389" d="M-.137,0H4.951L3.776,4.854H-1.3Z" transform="translate(994.199 102.854)" fill="#f4f91f"/>
    <path id="Path_390" data-name="Path 390" d="M-.137,0H4.951L3.776,4.854H-1.3Z" transform="translate(1003.395 102.854)" fill="#f4f91f"/>
    <path id="Path_391" data-name="Path 391" d="M8.875,1.974h5.017L3.776,41.326H-1.3Z" transform="translate(1034.563 66.381)" fill="#f4f91f"/>
    <path id="Path_392" data-name="Path 392" d="M8.875,1.974h5.017L3.776,41.326H-1.3Z" transform="translate(1016.563 66.381)" fill="#f4f91f"/>
    <path id="Path_393" data-name="Path 393" d="M8.875,1.974h5.017L3.776,41.326H-1.3Z" transform="translate(1025.563 66.381)" fill="#f4f91f"/>
  </g>
</svg>
