<svg xmlns="http://www.w3.org/2000/svg" width="82.019" height="68.779" viewBox="0 0 82.019 68.779">
  <g id="Group_168" data-name="Group 168" transform="translate(-50.26 -27.781)">
    <path id="Path_394" data-name="Path 394" d="M8.875,1.974h5.017L3.776,41.326H-1.3Z" transform="translate(91.161 25.808)" fill="#f4f91f"/>
    <path id="Path_395" data-name="Path 395" d="M8.875,1.974h5.017L3.776,41.326H-1.3Z" transform="translate(51.563 25.808)" fill="#f4f91f"/>
    <path id="Path_396" data-name="Path 396" d="M8.875,1.974h5.017L3.776,41.326H-1.3Z" transform="translate(61.563 25.808)" fill="#f4f91f"/>
    <path id="Path_397" data-name="Path 397" d="M8.875,1.974h5.017L3.776,41.326H-1.3Z" transform="translate(71.563 25.808)" fill="#f4f91f"/>
    <path id="Path_398" data-name="Path 398" d="M8.875,1.974h5.017L3.776,41.326H-1.3Z" transform="translate(81.563 25.808)" fill="#f4f91f"/>
    <path id="Path_399" data-name="Path 399" d="M-.137,0H4.951L3.776,4.854H-1.3Z" transform="translate(99.242 64.854)" fill="#f4f91f"/>
    <path id="Path_400" data-name="Path 400" d="M-.137,0H4.951L3.776,4.854H-1.3Z" transform="translate(73.369 77.707)" fill="#f4f91f"/>
    <path id="Path_401" data-name="Path 401" d="M-.137,0H4.951L3.776,4.854H-1.3Z" transform="translate(83.939 91)" fill="#f4f91f"/>
    <path id="Path_402" data-name="Path 402" d="M-.137,0H4.951L3.776,4.854H-1.3Z" transform="translate(95.321 82)" fill="#f4f91f"/>
    <path id="Path_403" data-name="Path 403" d="M-.137,0H4.951L3.776,4.854H-1.3Z" transform="translate(80.309 73.854)" fill="#f4f91f"/>
    <path id="Path_404" data-name="Path 404" d="M-.137,0H4.951L3.776,4.854H-1.3Z" transform="translate(105.497 73.854)" fill="#f4f91f"/>
    <path id="Path_405" data-name="Path 405" d="M-.137,0H4.951L3.776,4.854H-1.3Z" transform="translate(56.254 90.854)" fill="#f4f91f"/>
    <path id="Path_407" data-name="Path 407" d="M-.137,0H4.951L3.776,4.854H-1.3Z" transform="translate(75.811 86.854)" fill="#f4f91f"/>
    <path id="Path_408" data-name="Path 408" d="M-.137,0H4.951L3.776,4.854H-1.3Z" transform="translate(70.812 91.707)" fill="#f4f91f"/>
    <path id="Path_409" data-name="Path 409" d="M-.137,0H4.951L3.776,4.854H-1.3Z" transform="translate(86.563 82)" fill="#f4f91f"/>
    <path id="Path_410" data-name="Path 410" d="M-.137,0H4.951L3.776,4.854H-1.3Z" transform="translate(68.431 82)" fill="#f4f91f"/>
    <path id="Path_411" data-name="Path 411" d="M-.137,0H4.951L3.776,4.854H-1.3Z" transform="translate(101.26 56)" fill="#f4f91f"/>
    <path id="Path_412" data-name="Path 412" d="M-.137,0H4.951L3.776,4.854H-1.3Z" transform="translate(113.877 73.707)" fill="#f4f91f"/>
    <path id="Path_413" data-name="Path 413" d="M-.137,0H4.951L3.776,4.854H-1.3Z" transform="translate(116.242 64.854)" fill="#f4f91f"/>
    <path id="Path_414" data-name="Path 414" d="M-.137,0H4.951L3.776,4.854H-1.3Z" transform="translate(112.321 82)" fill="#f4f91f"/>
    <path id="Path_415" data-name="Path 415" d="M-.137,0H4.951L3.776,4.854H-1.3Z" transform="translate(118.26 56)" fill="#f4f91f"/>
    <path id="Path_416" data-name="Path 416" d="M-.137,0H4.951L3.776,4.854H-1.3Z" transform="translate(122.943 73.707)" fill="#f4f91f"/>
    <path id="Path_417" data-name="Path 417" d="M-.137,0H4.951L3.776,4.854H-1.3Z" transform="translate(125.309 64.854)" fill="#f4f91f"/>
    <path id="Path_418" data-name="Path 418" d="M-.137,0H4.951L3.776,4.854H-1.3Z" transform="translate(121.388 82)" fill="#f4f91f"/>
    <path id="Path_419" data-name="Path 419" d="M-.137,0H4.951L3.776,4.854H-1.3Z" transform="translate(127.327 56)" fill="#f4f91f"/>
    <path id="Path_420" data-name="Path 420" d="M-.137,0H4.951L3.776,4.854H-1.3Z" transform="translate(109.199 56)" fill="#f4f91f"/>
    <path id="Path_422" data-name="Path 422" d="M-.137,0H4.951L3.776,4.854H-1.3Z" transform="translate(103.254 82)" fill="#f4f91f"/>
    <path id="Path_423" data-name="Path 423" d="M-.137,0H4.951L3.776,4.854H-1.3Z" transform="translate(100.004 90.854)" fill="#f4f91f"/>
  </g>
</svg>
