<svg xmlns="http://www.w3.org/2000/svg" width="51.509" height="39.854" viewBox="0 0 51.509 39.854">
  <g id="Group_169" data-name="Group 169" transform="translate(-736.442 -83)">
    <path id="Path_424" data-name="Path 424" d="M-.137,0H4.951L3.776,4.854H-1.3Z" transform="translate(783 83)" fill="#f4f91f"/>
    <path id="Path_425" data-name="Path 425" d="M-.137,0H4.951L3.776,4.854H-1.3Z" transform="translate(767.873 108.561)" fill="#f4f91f"/>
    <path id="Path_427" data-name="Path 427" d="M-.137,0H4.951L3.776,4.854H-1.3Z" transform="translate(777.254 118)" fill="#f4f91f"/>
    <path id="Path_428" data-name="Path 428" d="M-.137,0H4.951L3.776,4.854H-1.3Z" transform="translate(747.746 83)" fill="#f4f91f"/>
    <path id="Path_429" data-name="Path 429" d="M-.137,0H4.951L3.776,4.854H-1.3Z" transform="translate(771 91.854)" fill="#f4f91f"/>
    <path id="Path_430" data-name="Path 430" d="M-.137,0H4.951L3.776,4.854H-1.3Z" transform="translate(754 91.854)" fill="#f4f91f"/>
    <path id="Path_431" data-name="Path 431" d="M-.137,0H4.951L3.776,4.854H-1.3Z" transform="translate(749.746 109)" fill="#f4f91f"/>
    <path id="Path_432" data-name="Path 432" d="M-.137,0H4.951L3.776,4.854H-1.3Z" transform="translate(737.746 118)" fill="#f4f91f"/>
    <path id="Path_433" data-name="Path 433" d="M-.137,0H4.951L3.776,4.854H-1.3Z" transform="translate(760.254 100)" fill="#f4f91f"/>
  </g>
</svg>
